<svg width="48" height="48" viewBox="0 0 48 48" fill="none" xmlns="http://www.w3.org/2000/svg">
<circle cx="24" cy="24" r="24" fill="#003D7C"/>
<path d="M11.2266 13.3281L15.8516 24H14.1328L13.0156 21.2969H7.82812L6.72656 24H5.07812L9.625 13.3281H11.2266ZM12.4844 20L11.2578 17.0234C11.013 16.4557 10.8307 16.0104 10.7109 15.6875C10.5911 15.3594 10.4844 15.0104 10.3906 14.6406C10.3125 14.9271 10.2188 15.2135 10.1094 15.5C10.0052 15.7812 9.79948 16.2995 9.49219 17.0547L8.3125 20H12.4844ZM18.5 12.4766V24H17.0391V12.4766H18.5ZM27.4531 16.1953V21.1172C27.4531 21.5443 27.4896 22.5052 27.5625 24H26.2188L26.1562 22.7812C25.8385 23.224 25.4583 23.5573 25.0156 23.7812C24.5729 24 24.0729 24.1094 23.5156 24.1094C22.4271 24.1094 21.6719 23.7708 21.25 23.0938C20.8281 22.4167 20.6172 21.4974 20.6172 20.3359V16.1953H22.0703V19.8203C22.0703 20.1068 22.0755 20.4036 22.0859 20.7109C22.1016 21.0182 22.1224 21.2578 22.1484 21.4297C22.1745 21.6016 22.2135 21.7604 22.2656 21.9062C22.4062 22.25 22.6068 22.513 22.8672 22.6953C23.1328 22.8724 23.4453 22.9609 23.8047 22.9609C24.138 22.9609 24.4401 22.8958 24.7109 22.7656C24.9818 22.6302 25.2135 22.4375 25.4062 22.1875C25.599 21.9375 25.7474 21.638 25.8516 21.2891C25.9557 20.9401 26.0078 20.5573 26.0078 20.1406V19.6172V16.1953H27.4531ZM31.1172 16.1797L31.2031 17.4375C31.3438 17.151 31.5339 16.9036 31.7734 16.6953C32.013 16.487 32.2917 16.3281 32.6094 16.2188C32.9323 16.1042 33.2839 16.0469 33.6641 16.0469C34.2526 16.0469 34.7422 16.1823 35.1328 16.4531C35.5286 16.7188 35.8073 17.1068 35.9688 17.6172C36.4896 16.5703 37.349 16.0469 38.5469 16.0469C39.1042 16.0469 39.5599 16.1536 39.9141 16.3672C40.2682 16.5807 40.5339 16.8646 40.7109 17.2188C40.8932 17.5677 41.013 17.9635 41.0703 18.4062C41.1328 18.8438 41.1641 19.3385 41.1641 19.8906V24H39.7109V20.1797C39.7109 19.6745 39.7005 19.2839 39.6797 19.0078C39.6641 18.7318 39.6328 18.513 39.5859 18.3516C39.3828 17.638 38.9349 17.2812 38.2422 17.2812C38.0339 17.2812 37.8307 17.3177 37.6328 17.3906C37.4401 17.4635 37.263 17.5729 37.1016 17.7188C36.9401 17.8646 36.7995 18.0365 36.6797 18.2344C36.5599 18.4323 36.4661 18.6536 36.3984 18.8984C36.3411 19.0807 36.3021 19.2969 36.2812 19.5469C36.2656 19.7969 36.2578 20.1771 36.2578 20.6875V24H34.7969V19.9844C34.7969 19.4427 34.7891 19.0729 34.7734 18.875C34.763 18.6771 34.7344 18.4974 34.6875 18.3359C34.5885 18.0026 34.4245 17.7448 34.1953 17.5625C33.9714 17.375 33.7031 17.2812 33.3906 17.2812C33 17.2812 32.6458 17.3984 32.3281 17.6328C32.0156 17.862 31.7708 18.1823 31.5938 18.5938C31.4167 19.0052 31.3281 19.4688 31.3281 19.9844V20.5469V24H29.875V19.6016C29.875 18.2109 29.8411 17.0703 29.7734 16.1797H31.1172Z" fill="white"/>
<path d="M18.9062 28.3281V39H16.9375L13.5625 33.2109C12.9792 32.1797 12.5755 31.4505 12.3516 31.0234C12.1328 30.5911 11.9375 30.099 11.7656 29.5469C11.8542 30.7188 11.8984 32.0625 11.8984 33.5781V39H10.375V28.3281H12.4531L16.0859 34.6172C16.8203 35.8932 17.3125 36.9115 17.5625 37.6719C17.4948 36.9583 17.4557 36.4792 17.4453 36.2344C17.4349 35.8177 17.4245 35.4062 17.4141 35C17.4089 34.5938 17.4036 34.3385 17.3984 34.2344C17.3984 34.1302 17.3984 33.8724 17.3984 33.4609V28.3281H18.9062ZM29.9141 28.3438V34.3438C29.9141 35.1667 29.8672 35.8047 29.7734 36.2578C29.6849 36.7109 29.5234 37.1224 29.2891 37.4922C28.9349 38.0547 28.4609 38.4818 27.8672 38.7734C27.2734 39.0651 26.5859 39.2109 25.8047 39.2109C25.2161 39.2109 24.6745 39.125 24.1797 38.9531C23.6901 38.7812 23.2682 38.5365 22.9141 38.2188C22.5599 37.8958 22.2786 37.5 22.0703 37.0312C21.7943 36.4167 21.6562 35.4557 21.6562 34.1484V28.3438H23.1797V33.9297C23.1797 34.6589 23.2031 35.2161 23.25 35.6016C23.3021 35.987 23.4062 36.3307 23.5625 36.6328C23.7656 37.0339 24.0703 37.349 24.4766 37.5781C24.888 37.8021 25.3464 37.9141 25.8516 37.9141C26.4141 37.9141 26.8776 37.7891 27.2422 37.5391C27.6068 37.2891 27.8776 36.9531 28.0547 36.5312C28.237 36.1042 28.3438 35.6146 28.375 35.0625C28.3854 34.9271 28.3906 34.5703 28.3906 33.9922V28.3438H29.9141ZM37.6797 28.5234L37.4922 29.8672C36.7318 29.5755 36.0651 29.4297 35.4922 29.4297C35.1068 29.4297 34.7682 29.4922 34.4766 29.6172C34.1901 29.737 33.9661 29.9089 33.8047 30.1328C33.6484 30.3516 33.5703 30.6094 33.5703 30.9062C33.5703 31.3698 33.7318 31.724 34.0547 31.9688C34.3828 32.2135 34.9557 32.5495 35.7734 32.9766C36.5964 33.3984 37.2135 33.8281 37.625 34.2656C38.0365 34.6979 38.2422 35.2734 38.2422 35.9922C38.2422 36.6172 38.0911 37.1771 37.7891 37.6719C37.487 38.1667 37.0573 38.5469 36.5 38.8125C35.9479 39.0781 35.3125 39.2109 34.5938 39.2109C33.7448 39.2109 32.9349 39.0703 32.1641 38.7891L32.3203 37.3516C33.1068 37.7266 33.8047 37.9141 34.4141 37.9141C34.8464 37.9141 35.2292 37.8411 35.5625 37.6953C35.901 37.5495 36.1589 37.3411 36.3359 37.0703C36.5182 36.7943 36.6094 36.4714 36.6094 36.1016C36.6094 35.5703 36.4297 35.1693 36.0703 34.8984C35.7109 34.6224 35.1406 34.2969 34.3594 33.9219C33.5781 33.5469 32.987 33.1589 32.5859 32.7578C32.1849 32.3516 31.9844 31.7812 31.9844 31.0469C31.9844 30.474 32.1224 29.9688 32.3984 29.5312C32.6797 29.0885 33.0755 28.7448 33.5859 28.5C34.1016 28.2552 34.6875 28.1328 35.3438 28.1328C36.1719 28.1328 36.9505 28.263 37.6797 28.5234Z" fill="#EF7C00"/>
</svg>
